<svg width="537" height="508" viewBox="0 0 537 508" fill="none" xmlns="http://www.w3.org/2000/svg">
<path fill-rule="evenodd" clip-rule="evenodd" d="M135.686 58.2144C176.197 33.2676 225.411 37.0741 273.225 36.8221C318.8 36.5819 364.407 35.2853 406.201 56.7888C451.964 80.334 495.431 114.115 517.652 162.581C540.477 212.364 541.392 270.019 527.628 321.628C514.323 371.512 480.565 409.735 443.072 442.209C405.885 474.419 384.465 480.834 335.98 487.277C258.758 503.927 242.961 494.867 184.148 460.98C135.047 432.689 72.9857 407.085 50.3507 353.118C27.4763 298.581 -11.6308 291.701 4.37172 236.399C19.7098 183.394 90.7503 85.8855 135.686 58.2144Z" fill="#483AE4"/>
<path fill-rule="evenodd" clip-rule="evenodd" d="M491.461 266.85C484.939 321.063 450.872 361.188 421.736 402.442C393.532 442.376 366.137 486.577 325.77 501.455C284.823 516.546 243.46 497.92 203.091 483.027C158.438 466.554 104.914 460.139 79.951 410.768C54.9189 361.26 71.9422 295.838 78.5532 236.719C84.7553 181.256 88.4444 122.995 116.993 79.5207C145.651 35.8786 188.727 9.88808 232.682 2.00613C273.661 -5.34218 310.991 19.624 349.251 37.8724C388.197 56.4478 431.408 67.7492 457.036 109.013C484.186 152.729 498.187 210.943 491.461 266.85Z" fill="#6A77F0"/>
</svg>
