<svg width="537" height="508" viewBox="0 0 537 508" fill="none" xmlns="http://www.w3.org/2000/svg">
<path fill-rule="evenodd" clip-rule="evenodd" d="M135.686 58.2154C176.197 33.2686 225.411 37.0751 273.225 36.8231C318.8 36.5829 364.407 35.2863 406.201 56.7897C451.964 80.3349 495.431 114.116 517.652 162.582C540.477 212.365 541.392 270.02 527.628 321.629C514.323 371.513 480.565 409.736 443.072 442.21C405.885 474.42 384.465 480.835 335.98 487.278C258.758 503.928 242.961 494.868 184.148 460.981C135.047 432.69 72.9857 407.086 50.3507 353.119C27.4763 298.582 -11.6308 291.702 4.37172 236.4C19.7098 183.395 90.7503 85.8865 135.686 58.2154Z" fill="#483AE4"/>
<path fill-rule="evenodd" clip-rule="evenodd" d="M491.462 266.851C484.94 321.064 450.872 361.189 421.737 402.443C393.533 442.377 366.138 486.578 325.771 501.456C284.824 516.547 243.461 497.921 203.092 483.028C158.439 466.555 104.915 460.14 79.952 410.769C54.9199 361.26 71.9431 295.839 78.5542 236.72C84.7563 181.257 88.4454 122.996 116.994 79.5217C145.652 35.8795 188.728 9.88906 232.683 2.0071C273.662 -5.34121 310.992 19.625 349.252 37.8734C388.198 56.4488 431.409 67.7502 457.037 109.014C484.187 152.73 498.188 210.944 491.462 266.851Z" fill="#6A77F0"/>
</svg>
