<svg width="537" height="460" viewBox="0 0 537 460" fill="none" xmlns="http://www.w3.org/2000/svg">
<path fill-rule="evenodd" clip-rule="evenodd" d="M135.686 22.2144C176.197 -2.73236 225.411 1.07411 273.225 0.822122C318.8 0.581932 364.407 -0.714655 406.201 20.7888C451.964 44.334 495.431 78.1148 517.652 126.581C540.477 176.364 541.392 234.019 527.628 285.628C514.323 335.512 480.565 373.735 443.072 406.209C405.885 438.419 384.465 444.834 335.98 451.277C258.758 467.927 242.961 458.867 184.148 424.98C135.047 396.689 72.9857 371.085 50.3507 317.118C27.4763 262.581 -11.6308 255.701 4.37171 200.399C19.7098 147.394 90.7503 49.8855 135.686 22.2144Z" fill="#483AE4"/>
</svg>
